Coordinates
version=1
nRows=15
nColumns=42
inDegrees=yes

Units are S.I. units (second, meters, Newtons, ...)
If the header above contains a line with 'inDegrees', this indicates whether rotational values are in degrees (yes) or radians (no).

endheader
time	pelvis_tilt	pelvis_list	pelvis_rotation	pelvis_tx	pelvis_ty	pelvis_tz	hip_flexion_r	hip_adduction_r	hip_rotation_r	knee_angle_r	knee_adduction_r	knee_angle_r_beta	ankle_angle_r	subtalar_angle_r	mtp_angle_r	hip_flexion_l	hip_adduction_l	hip_rotation_l	knee_angle_l	knee_adduction_l	knee_angle_l_beta	ankle_angle_l	subtalar_angle_l	mtp_angle_l	lumbar_extension	lumbar_bending	lumbar_rotation	arm_flex_r	arm_add_r	arm_rot_r	elbow_flex_r	pro_sup_r	wrist_flex_r	wrist_dev_r	arm_flex_l	arm_add_l	arm_rot_l	elbow_flex_l	pro_sup_l	wrist_flex_l	wrist_dev_l
      0.60000000	     -2.82073321	     -1.12035323	     -1.85725350	     -0.70397309	      0.85747780	     -0.39238803	     26.97472135	     -1.03562682	     -8.26612670	     21.51429679	      6.57853842	      0.37549532	      1.88267875	     -5.29282766	     -7.78699400	    -10.00616566	     -3.40187995	     -0.26365105	      4.00414420	     11.95948185	      0.06988550	     18.14361161	     -0.54731430	     -7.78699400	     -4.74489773	      1.93317691	      0.62513206	     -4.70487311	    -15.03240130	      1.61002355	     31.51814504	     90.00000001	      0.00000000	      0.00000000	      9.84528515	    -12.67886720	    -13.75934923	     33.50038218	     90.00000001	      0.00000000	      0.00000000
      0.61000000	     -2.82155074	     -0.99672747	     -1.55133503	     -0.69204761	      0.85542586	     -0.39236130	     26.63542602	     -1.28143192	     -8.62710932	     18.45827122	      6.70011547	      0.32215761	      1.74217511	     -3.95380019	     -7.77285252	    -10.78673434	     -3.33086273	     -0.18580988	      4.19127941	     12.05090887	      0.07315163	     18.51063369	     -0.29440560	     -7.77285252	     -4.59438244	      1.91839689	      0.12876978	     -5.12802608	    -15.15271876	      1.21609831	     31.51080159	     90.00000001	      0.00000000	      0.00000000	     10.11694193	    -12.78932908	    -13.48096421	     33.70563731	     90.00000001	      0.00000000	      0.00000000
      0.62000000	     -3.13820995	     -0.62380375	     -1.30787717	     -0.68029612	      0.85297198	     -0.39247084	     26.79147388	     -1.81559785	     -8.81739428	     15.99896755	      6.87120967	      0.27923466	      1.60408778	     -2.67092810	     -7.76762073	    -11.09951153	     -2.91084606	     -0.03101111	      4.58662947	     11.97714968	      0.08005179	     18.80461910	     -0.15301149	     -7.76762073	     -4.09452615	      1.65640428	     -0.34305534	     -5.56289504	    -15.30936506	      0.99865090	     31.53777160	     90.00000001	      0.00000000	      0.00000000	     10.29811452	    -12.89462229	    -13.26110425	     33.91140802	     90.00000001	      0.00000000	      0.00000000
      0.63000000	     -2.90837778	     -0.74081212	     -0.98068946	     -0.66785198	      0.85129643	     -0.39211305	     26.05554736	     -1.76011550	     -9.13698991	     13.47439427	      6.87456010	      0.23517254	      1.64561996	     -1.39450417	     -7.75647573	    -12.13165844	     -3.19900941	      0.17882418	      4.85030730	     12.14436475	      0.08465383	     19.06838696	      0.02432115	     -7.75647573	     -4.17766862	      1.88423141	     -0.84833460	     -5.88208452	    -15.37031091	      0.43967276	     31.42997034	     90.00000001	      0.00000000	      0.00000000	     10.44206343	    -13.01783366	    -12.86672252	     34.17733421	     90.00000001	      0.00000000	      0.00000000
      0.64000000	     -3.25058254	     -0.49059711	     -0.74361977	     -0.65586790	      0.84900255	     -0.39204794	     26.24639493	     -2.14845024	     -9.21929968	     11.84866154	      6.97735445	      0.20679816	      1.48574008	     -0.37573486	     -7.75243958	    -12.36857057	     -2.97132703	      0.45489624	      5.35425458	     12.10642864	      0.09344937	     19.16687908	      0.10957898	     -7.75243958	     -3.65059575	      1.75561444	     -1.27178977	     -6.29008788	    -15.56847845	      0.24040412	     31.46259359	     90.00000001	      0.00000000	      0.00000000	     10.51925792	    -13.07927847	    -12.68676199	     34.40930387	     90.00000001	      0.00000000	      0.00000000
      0.65000000	     -3.18604966	     -0.63652345	     -0.41433637	     -0.64350231	      0.84740498	     -0.39151862	     25.81826125	     -2.03115453	     -9.38652759	     10.35767626	      6.87265934	      0.18077555	      1.49238300	      0.63141668	     -7.74095702	    -13.02905732	     -3.36176708	      0.79946476	      5.94699121	     12.33010833	      0.10379458	     19.20017591	      0.11224865	     -7.74095702	     -3.59624570	      2.01244538	     -1.72929776	     -6.55045220	    -15.65356647	     -0.27809017	     31.32756092	     90.00000001	      0.00000000	      0.00000000	     10.56079039	    -13.18864920	    -12.31511627	     34.76662195	     90.00000001	      0.00000000	      0.00000000
      0.66000000	     -3.34289069	     -0.53316950	     -0.49556015	     -0.63134941	      0.84560352	     -0.39085946	     26.14696941	     -2.10591868	     -9.39813573	     10.25435658	      6.82057087	      0.17897229	      1.48869867	      0.78601972	     -7.73942141	    -13.48792052	     -3.31983270	      0.99502231	      6.46119762	     12.40196108	      0.11276917	     19.10562158	      0.19310597	     -7.73942141	     -3.32423623	      2.04022486	     -1.83610802	     -6.80528782	    -15.91179132	     -0.35555592	     31.26941113	     90.00000001	      0.00000000	      0.00000000	     10.58885518	    -13.21544239	    -12.29238992	     34.91376168	     90.00000001	      0.00000000	      0.00000000
      0.67000000	     -3.52345008	     -0.82450015	      0.01821442	     -0.61883057	      0.84429372	     -0.39044443	     25.77696591	     -1.89237471	     -9.28586965	      9.13093409	      6.71740143	      0.15936486	      1.44189121	      1.75739335	     -7.73146945	    -13.52028186	     -3.91006051	      1.47748923	      7.71462854	     12.59366451	      0.13464567	     18.77627104	     -0.18404925	     -7.73146945	     -2.96321657	      2.45780313	     -2.44467267	     -7.00756582	    -15.95325528	     -0.87208191	     31.02484118	     90.00000001	      0.00000000	      0.00000000	     10.40353178	    -13.24355358	    -11.89264023	     35.42297177	     90.00000001	      0.00000000	      0.00000000
      0.68000000	     -3.64466260	     -0.84101729	     -0.02850033	     -0.60614599	      0.84311018	     -0.38968812	     25.84413206	     -1.83244233	     -9.02814758	      9.37062666	      6.68187738	      0.16354829	      1.40369034	      1.88570326	     -7.72997234	    -13.93682871	     -3.99716798	      1.88798928	      8.35694207	     12.62959173	      0.14585615	     18.54016690	     -0.08756980	     -7.72997234	     -2.66908584	      2.60938473	     -2.50976188	     -7.26661679	    -16.17698944	     -0.95534516	     30.94584927	     90.00000001	      0.00000000	      0.00000000	     10.28875610	    -13.18228034	    -11.86642706	     35.54423323	     90.00000001	      0.00000000	      0.00000000
      0.69000000	     -3.78685495	     -1.31470868	      0.32520775	     -0.59370506	      0.84232525	     -0.38883086	     25.70659048	     -1.32052943	     -8.88820981	      9.49742543	      6.45843660	      0.16576134	      1.40881890	      1.93712857	     -7.72460856	    -13.70376858	     -4.87304103	      2.05916220	     10.21598405	     13.02288086	      0.17830256	     17.29162370	     -0.76542765	     -7.72460856	     -2.42384811	      3.21877508	     -2.95629889	     -7.31985047	    -16.28449939	     -1.34365340	     30.68192958	     90.00000001	      0.00000000	      0.00000000	      9.99155597	    -13.16568492	    -11.65043001	     36.16568303	     90.00000001	      0.00000000	      0.00000000
      0.70000000	     -3.83950650	     -1.76062922	      0.41147223	     -0.58093425	      0.84188964	     -0.38778001	     25.55165249	     -0.75278702	     -8.60442384	     10.08193256	      6.27900937	      0.17596292	      1.18174949	      1.62225069	     -7.71929428	    -13.71974034	     -5.59939362	      2.27246527	     11.78140904	     13.32516579	      0.20562438	     16.31156810	     -1.41064248	     -7.71929428	     -2.24277574	      3.82037380	     -3.09825572	     -7.36646660	    -16.44280824	     -1.67078242	     30.36269848	     90.00000001	      0.00000000	      0.00000000	      9.69741462	    -13.07194053	    -11.52476238	     36.57543750	     90.00000001	      0.00000000	      0.00000000
      0.71000000	     -3.85558259	     -2.18049839	      0.44967151	     -0.56808439	      0.84177586	     -0.38659044	     25.33350639	     -0.18908891	     -8.19393666	     10.86978098	      6.15328317	      0.18971347	      0.97724036	      1.12147045	     -7.71420539	    -13.63740382	     -6.30679020	      2.45073095	     13.58472757	     13.66910702	      0.23709822	     14.97300263	     -2.12501999	     -7.71420539	     -2.11479251	      4.37453999	     -3.16401205	     -7.38336689	    -16.58937591	     -1.92652139	     30.07381278	     90.00000001	      0.00000000	      0.00000000	      9.34967353	    -12.96234827	    -11.46662188	     36.98719688	     90.00000001	      0.00000000	      0.00000000
      0.72000000	     -3.86159714	     -2.63072253	      0.47250196	     -0.55509389	      0.84197183	     -0.38542667	     25.04609294	      0.42292234	     -7.69196174	     11.75984301	      6.03449797	      0.20524798	      0.67247218	      0.37605556	     -7.70860745	    -13.39291070	     -7.04350064	      2.44920554	     15.72850088	     14.01130326	      0.27451413	     13.33210291	     -3.14450080	     -7.70860745	     -1.97914784	      4.97314641	     -3.18921730	     -7.36000874	    -16.75143997	     -2.17044846	     29.71774973	     90.00000001	      0.00000000	      0.00000000	      8.93289864	    -12.80101533	    -11.42798147	     37.43461251	     90.00000001	      0.00000000	      0.00000000
      0.73000000	     -3.76683050	     -3.02199254	      0.42641256	     -0.54212388	      0.84253830	     -0.38406938	     24.62144648	      0.99371711	     -7.12801298	     12.74989200	      5.99666036	      0.22252759	      0.46545315	     -0.36980095	     -7.70393626	    -13.11439884	     -7.72993927	      2.40837259	     18.09422943	     14.39850065	      0.31580388	     11.44383631	     -4.13712509	     -7.70393626	     -1.99822492	      5.47341300	     -3.11001952	     -7.27123528	    -16.88458084	     -2.33278339	     29.40189570	     90.00000001	      0.00000000	      0.00000000	      8.51434155	    -12.65143664	    -11.43824586	     37.87572001	     90.00000001	      0.00000000	      0.00000000
      0.74000000	     -3.71880391	     -3.43362833	      0.36144972	     -0.52902657	      0.84332369	     -0.38276097	     24.14380467	      1.59542318	     -6.48761554	     13.66160414	      5.98971003	      0.23843997	      0.16766811	     -1.26154132	     -7.69868169	    -12.56937560	     -8.40746577	      2.12410473	     20.87869837	     14.67163723	      0.36440203	      9.32556073	     -5.44400615	     -7.69868169	     -1.93600050	      6.00860669	     -2.99073880	     -7.16153155	    -17.02711237	     -2.48093781	     29.02144426	     90.00000001	      0.00000000	      0.00000000	      8.00022847	    -12.44248032	    -11.44969066	     38.33614669	     90.00000001	      0.00000000	      0.00000000
